<svg xmlns="http://www.w3.org/2000/svg" xmlns:xlink="http://www.w3.org/1999/xlink" width="178" height="178" viewBox="0 0 178 178">
    <defs>
        <circle id="a" cx="62" cy="62" r="62"/>
        <circle id="c" cx="62" cy="62" r="62"/>
        <path id="e" d="M13.333 10.4a1.333 1.333 0 1 1-2.666 0 1.333 1.333 0 0 1 2.666 0m-5.866-.063c.03 2.8 4.514 7.276 4.533 7.263-.005-.024 4.533-4.494 4.533-7.263.005-2.529-2.023-4.466-4.533-4.47-.093 0-.19.003-.567 0-2.125.173-3.982 2.085-3.966 4.47z"/>
        <path id="f" d="M18.333 14.3a1.833 1.833 0 1 1-3.666 0 1.833 1.833 0 0 1 3.666 0m-8.066-.087c.041 3.85 6.208 10.005 6.233 9.987-.007-.033 6.233-6.18 6.233-9.987.006-3.477-2.782-6.14-6.233-6.146-.128 0-.262.004-.78 0-2.922.239-5.474 2.867-5.453 6.146z"/>
        <path id="g" d="M17.778 14.3c0 1.013-.796 1.833-1.778 1.833s-1.778-.82-1.778-1.833.796-1.833 1.778-1.833 1.778.82 1.778 1.833m-7.822-.087c.04 3.85 6.02 10.005 6.044 9.987-.006-.033 6.044-6.18 6.044-9.987.006-3.477-2.698-6.14-6.044-6.146-.124 0-.254.004-.756 0-2.834.239-5.309 2.867-5.288 6.146z"/>
        <path id="h" d="M8.333 6.5a.833.833 0 1 1-1.666 0 .833.833 0 0 1 1.666 0m-3.666-.04C4.686 8.21 7.488 11.008 7.5 11c-.003-.015 2.833-2.809 2.833-4.54.003-1.58-1.264-2.79-2.833-2.793-.058 0-.12.002-.354 0-1.329.108-2.489 1.303-2.48 2.793z"/>
        <path id="i" d="M11.667 9.1a1.167 1.167 0 1 1-2.333 0 1.167 1.167 0 0 1 2.333 0m-5.134-.056c.027 2.451 3.95 6.368 3.967 6.356-.004-.021 3.967-3.932 3.967-6.356.003-2.212-1.771-3.907-3.967-3.91-.081 0-.167.002-.496 0-1.86.151-3.484 1.824-3.47 3.91z"/>
        <path id="j" d="M24.444 19.067a2.444 2.444 0 1 1-4.888 0 2.444 2.444 0 0 1 4.888 0M13.69 18.95c.055 5.135 8.277 13.341 8.311 13.317-.009-.045 8.311-8.24 8.311-13.317.008-4.635-3.71-8.187-8.311-8.194-.17 0-.35.005-1.039 0-3.897.318-7.3 3.822-7.272 8.194z"/>
    </defs>
    <g fill="none" fill-rule="evenodd">
        <circle cx="89" cy="89" r="60.969" fill="#5CB7E7"/>
        <circle cx="28.031" cy="128.244" r="7.709" fill="#F55564"/>
        <circle cx="146.114" cy="34.689" r="12.965" fill="#FFF200"/>
        <circle cx="55.012" cy="150.319" r="5.957" fill="#213B73"/>
        <circle cx="152.421" cy="55.713" r="5.957" fill="#8C4C9E"/>
        <circle cx="24.177" cy="111.776" r="3.854" fill="#5FBEA5"/>
        <g transform="translate(26 25)">
            <g transform="translate(0 2)">
                <mask id="b" fill="#fff">
                    <use xlink:href="#a"/>
                </mask>
                <use fill="#5CB7E7" xlink:href="#a"/>
                <g mask="url(#b)">
                    <g transform="translate(.713)">
                        <mask id="d" fill="#fff">
                            <use xlink:href="#c"/>
                        </mask>
                        <use fill="#5CB7E7" xlink:href="#c"/>
                        <path fill="#FFF200" d="M62.373 125.425c-35.179 0-63.798-28.612-63.798-63.782 0-35.169 28.62-63.78 63.798-63.78 6.533 0 12.837.99 18.775 2.82l-7.252 3.874a2.257 2.257 0 0 1-.563.213L56.96 8.567a1.402 1.402 0 0 0-.309.111A1.402 1.402 0 0 1 54.7 6.964l.08-.228a2.308 2.308 0 0 0-.296-2.085 2.31 2.31 0 0 0-1.87-.975l-8.357-.047a2.305 2.305 0 0 0-1.41.473l-11.269 8.587a2.222 2.222 0 0 0 2.244 3.797l1.256-.555a1.863 1.863 0 0 1 2.24.584 1.864 1.864 0 0 0 2.94.043l1.034-1.292a2.32 2.32 0 0 1 .36-.36l.237-.19a2.017 2.017 0 0 1 3.258 1.844 2.023 2.023 0 0 1-.808 1.356l-1.44 1.051a2.321 2.321 0 0 1-.816.38l-5.488 1.332c-.11.027-.222.045-.333.055l-5.084.465a2.292 2.292 0 0 0-1.146.432l-3.729 2.71a2.22 2.22 0 0 0-.572 2.98c.324.51.424 1.132.277 1.72a2.24 2.24 0 0 1-2.27 1.693l-2.394-.104a2.305 2.305 0 0 0-2.36 1.85l-.48 2.406a2.307 2.307 0 0 0 1.932 2.733l2.222.316c.65.094 1.31-.096 1.812-.519l7.145-6.027a2.307 2.307 0 0 1 1.575-.54l1.82.069c.51.02 1 .208 1.392.537l1.432 1.2a2.304 2.304 0 0 1 .668 2.6l-.207.532a1.848 1.848 0 0 0 2.544 2.322l3.307-1.645a2.303 2.303 0 0 1 1.136-.238l2.128.102c.067.002.134.01.201.018l2.856.388a.023.023 0 0 0 .01.001l4.54.637a2.303 2.303 0 0 1 1.974 2.503l-.049.513a2.306 2.306 0 0 1-1.527 1.95l-2.497.881c-.453.16-.945.174-1.405.041l-4.752-1.37a2.308 2.308 0 0 0-2.493.845l-.242.327a2.304 2.304 0 0 1-2.779.741l-4.772-2.092a2.292 2.292 0 0 1-1.357-1.857 2.296 2.296 0 0 0-2.685-2.01l-5.672 1.023c-.08.015-.158.033-.235.056l-6.572 1.91a2.302 2.302 0 0 0-1.175.8L11.24 51.32a2.304 2.304 0 0 0-.485 1.414v10.94c0 .671.292 1.308.8 1.745l6.164 5.312c.534.46 1.25.651 1.941.518l9.262-1.785a2.307 2.307 0 0 1 1.547.243l3.694 2.031a2.302 2.302 0 0 1 1.178 2.294l-.411 3.406c-.05.404.01.814.171 1.188l3.16 7.334c.233.542.25 1.153.046 1.707l-2.218 6.015a2.308 2.308 0 0 0-.002 1.588l5.397 14.778a2.306 2.306 0 0 0 1.98 1.507l5.659.455c.76.061 1.5-.256 1.98-.85l5.102-6.322a2.29 2.29 0 0 0 .447-.905l1.732-7.153c.109-.45.35-.855.691-1.165l2.885-2.613c.563-.51.839-1.263.738-2.014l-1.179-8.785a2.3 2.3 0 0 1 .567-1.842l8.137-9.093a2.33 2.33 0 0 0 .462-.785l1.076-3.114a2.303 2.303 0 0 0-2.656-3.007l-1.527.324a2.305 2.305 0 0 1-2.363-.932l-9.557-13.61a1.734 1.734 0 0 1 .386-2.388l.168-.126a1.737 1.737 0 0 1 2.318.226l9.45 10.396c.415.457.996.728 1.614.753l3.954.156a2.303 2.303 0 0 0 2.009-1.024l2.81-4.214a2.306 2.306 0 0 0-.703-3.235l-.28-.174a2.313 2.313 0 0 0-2.084-.176l-1.259.513a2.306 2.306 0 0 1-2.956-1.158l-1.546-3.306a1.137 1.137 0 0 1 .554-1.52l.134-.06a1.138 1.138 0 0 1 1.104.082l2.828 1.862c.357.235.773.367 1.201.379l7.424.215c.686.02 1.327.344 1.75.884l4.861 6.224c.096.122.182.255.25.396l5.43 10.958a2.303 2.303 0 0 0 2.063 1.28h.28c.923 0 1.757-.55 2.12-1.4l2.74-6.418c.074-.172.167-.334.281-.484l3.646-4.83a2.304 2.304 0 0 1 3.798.172l2.988 4.814c.056.091.107.186.15.284l3.886 8.804c.059.133.13.261.214.381l3.31 4.78a1.584 1.584 0 0 0 2.67-.096l.09-.155c.173-.292.248-.634.212-.973l-.465-4.322a2.312 2.312 0 0 1 .562-1.767l2.519-2.864a63.57 63.57 0 0 1-2.509 16.417l-.35-.743a2.294 2.294 0 0 0-.57-.754l-7.32-6.388a1.924 1.924 0 0 0-3.003 2.282l3.752 7.819c.163.34.407.635.71.858l4.54 3.345c-9.556 23.197-32.404 39.575-59.015 39.575M62-9.265c-38.963 0-70.55 31.588-70.55 70.552 0 38.965 31.587 70.552 70.55 70.552 38.965 0 70.553-31.587 70.553-70.552 0-38.964-31.588-70.551-70.553-70.551" mask="url(#d)"/>
                    </g>
                </g>
            </g>
            <circle cx="57" cy="17" r="2" fill="#F15463"/>
            <circle cx="46" cy="9" r="2" fill="#F15463"/>
            <circle cx="45" cy="29" r="3" fill="#F15463"/>
            <circle cx="30" cy="22" r="3" fill="#F15463"/>
            <circle cx="67.5" cy="13.5" r="1.5" fill="#F15463"/>
            <circle cx="67.5" cy="31.5" r="4.5" fill="#F15463"/>
            <use fill="#FD8585" transform="translate(45 7.333)" xlink:href="#e"/>
            <use fill="#FD8585" transform="translate(14 7)" xlink:href="#f"/>
            <use fill="#FD8585" transform="translate(28 14)" xlink:href="#g"/>
            <use fill="#FD8585" transform="translate(60 7)" xlink:href="#h"/>
            <use fill="#FD8585" transform="translate(36)" xlink:href="#i"/>
            <use fill="#FD8585" transform="translate(46 12)" xlink:href="#j"/>
        </g>
    </g>
</svg>
